<svg width="21" height="22" viewBox="0 0 21 22" fill="none" xmlns="http://www.w3.org/2000/svg">
<path d="M8.06643 18.3711L8.65087 19.6856C8.82461 20.0768 9.10815 20.4093 9.4671 20.6426C9.82605 20.8759 10.245 21.0001 10.6731 21C11.1012 21.0001 11.5201 20.8759 11.8791 20.6426C12.238 20.4093 12.5216 20.0768 12.6953 19.6856L13.2798 18.3711C13.4878 17.9047 13.8378 17.5159 14.2798 17.26C14.7245 17.0034 15.2391 16.8941 15.7498 16.9478L17.1798 17.1C17.6054 17.145 18.035 17.0656 18.4164 16.8713C18.7979 16.6771 19.1147 16.3763 19.3287 16.0056C19.5428 15.635 19.6449 15.2103 19.6224 14.7829C19.5999 14.3555 19.4539 13.9438 19.202 13.5978L18.3553 12.4344C18.0538 12.0171 17.8928 11.5148 17.8953 11C17.8952 10.4866 18.0578 9.98635 18.3598 9.57111L19.2064 8.40778C19.4583 8.06175 19.6043 7.65007 19.6268 7.22267C19.6493 6.79528 19.5473 6.37054 19.3331 6C19.1192 5.62923 18.8023 5.32849 18.4209 5.13423C18.0395 4.93997 17.6099 4.86053 17.1842 4.90556L15.7542 5.05778C15.2435 5.11141 14.729 5.00212 14.2842 4.74556C13.8413 4.48825 13.4913 4.09736 13.2842 3.62889L12.6953 2.31444C12.5216 1.92317 12.238 1.59072 11.8791 1.3574C11.5201 1.12408 11.1012 0.99993 10.6731 1C10.245 0.99993 9.82605 1.12408 9.4671 1.3574C9.10815 1.59072 8.82461 1.92317 8.65087 2.31444L8.06643 3.62889C7.85936 4.09736 7.5093 4.48825 7.06643 4.74556C6.62164 5.00212 6.1071 5.11141 5.59643 5.05778L4.16198 4.90556C3.73631 4.86053 3.30672 4.93997 2.9253 5.13423C2.54388 5.32849 2.227 5.62923 2.0131 6C1.79892 6.37054 1.69688 6.79528 1.71936 7.22267C1.74185 7.65007 1.88789 8.06175 2.13976 8.40778L2.98643 9.57111C3.28837 9.98635 3.45097 10.4866 3.45087 11C3.45097 11.5134 3.28837 12.0137 2.98643 12.4289L2.13976 13.5922C1.88789 13.9382 1.74185 14.3499 1.71936 14.7773C1.69688 15.2047 1.79892 15.6295 2.0131 16C2.22721 16.3706 2.54412 16.6712 2.92549 16.8654C3.30686 17.0596 3.73635 17.1392 4.16198 17.0944L5.59198 16.9422C6.10265 16.8886 6.6172 16.9979 7.06198 17.2544C7.50651 17.511 7.85819 17.902 8.06643 18.3711Z" stroke="#6B6B6B" stroke-width="2" stroke-linecap="round" stroke-linejoin="round"/>
<path d="M10.6713 14C12.3282 14 13.6713 12.6569 13.6713 11C13.6713 9.34315 12.3282 8 10.6713 8C9.01445 8 7.67131 9.34315 7.67131 11C7.67131 12.6569 9.01445 14 10.6713 14Z" stroke="#6B6B6B" stroke-width="2" stroke-linecap="round" stroke-linejoin="round"/>
</svg>
